<?xml version="1.0" encoding="utf-8"?>
<!-- Generator: Adobe Illustrator 27.5.0, SVG Export Plug-In . SVG Version: 6.00 Build 0)  -->
<svg version="1.1" xmlns="http://www.w3.org/2000/svg" xmlns:xlink="http://www.w3.org/1999/xlink" x="0px" y="0px"
	 viewBox="0 0 388.4 250.3" style="enable-background:new 0 0 388.4 250.3;" xml:space="preserve">
<style type="text/css">
	.st0{display:none;}
	.st1{display:inline;}
	.st2{fill:none;stroke:#E6007E;stroke-width:6;stroke-miterlimit:10;}
	.st3{fill:#1E274A;stroke:#1E274A;stroke-width:6;stroke-miterlimit:10;}
	.st4{fill:#F7A941;stroke:#1E274A;stroke-width:5;stroke-miterlimit:10;}
	.st5{fill:#FFCE44;stroke:#1E274A;stroke-width:5;stroke-miterlimit:10;}
	.st6{fill:#F7A941;}
	.st7{fill:#F07F3C;}
	.st8{fill:#EA5160;}
	.st9{fill:#FFFFFF;}
	.st10{fill:#61C3D9;}
	.st11{fill:#4D9BB3;}
	.st12{fill:#D0364E;}
	.st13{fill:none;stroke:#FFFFFF;stroke-width:5;stroke-linecap:round;stroke-miterlimit:10;}
	.st14{fill:#1E274A;}
</style>
<g id="sicherung" class="st0">
	<g class="st1">
		<path class="st2" d="M666.6,575H497.4c-4.1,0-7.4-3.3-7.4-7.4l0,0c0-4.1,3.3-7.4,7.4-7.4h169.2c4.1,0,7.4,3.3,7.4,7.4l0,0
			C674,571.7,670.7,575,666.6,575z"/>
		<path class="st2" d="M621.6,733.8h-79.2c-8.5,0-15.6-6.2-16.8-14.6L504.7,575h154.6l-20.9,144.2
			C637.2,727.6,630,733.8,621.6,733.8z"/>
	</g>
	<g class="st1">
		<path class="st2" d="M865,575H695.8c-4.1,0-7.4-3.3-7.4-7.4l0,0c0-4.1,3.3-7.4,7.4-7.4H865c4.1,0,7.4,3.3,7.4,7.4l0,0
			C872.4,571.7,869.1,575,865,575z"/>
		<path class="st2" d="M820,733.8h-79.2c-8.5,0-15.6-6.2-16.8-14.6L703.1,575h154.6l-20.9,144.2C835.6,727.6,828.4,733.8,820,733.8z
			"/>
	</g>
	<g class="st1">
		<path class="st2" d="M765.8,575H596.6c-4.1,0-7.4-3.3-7.4-7.4l0,0c0-4.1,3.3-7.4,7.4-7.4h169.2c4.1,0,7.4,3.3,7.4,7.4l0,0
			C773.2,571.7,769.9,575,765.8,575z"/>
		<path class="st2" d="M720.8,733.8h-79.2c-8.5,0-15.6-6.2-16.8-14.6L603.9,575h154.6l-20.9,144.2
			C736.4,727.6,729.2,733.8,720.8,733.8z"/>
	</g>
</g>
<g id="sicherung_00000094582843494556927780000004802511389003463838_" class="st0">
	<g class="st1">
		<g>
			<path class="st3" d="M-18.5,650.5H4c9.3,0,15.5,6.5,15.5,15.4c0,5.8-2.2,9.4-5.5,11.7c4.3,1.9,7.7,6,7.7,13.5
				c0,10.4-6,16.5-17.1,16.5h-22.9V650.5z M2,674.8c5.7,0,10.1-2.2,10.1-8.9c0-5.4-3.6-8.7-10.1-8.7h-13.3v17.6H2z M3.4,700.9
				c6.8,0,10.8-3.3,10.8-9.8c0-6.7-3.9-9.8-10.8-9.8h-14.7v19.6H3.4z"/>
			<path class="st3" d="M31.8,700.8h11.9v-43.5H31.8v-6.8h31.1v6.8H51v43.5h11.9v6.8H31.8V700.8z"/>
			<path class="st3" d="M76.8,650.5h21c10.6,0,17.3,5.6,17.3,15.3c0,10.8-8.1,15.7-18.1,15.7h-13v26h-7.2V650.5z M97.3,674.9
				c6.1,0,10.3-2.1,10.3-9c0-6.7-4.2-8.9-10.3-8.9H83.9v17.9H97.3z"/>
			<path class="st3" d="M124.8,683.9v-9.8c0-15.6,8.2-24.4,22.5-24.4s22.5,8.8,22.5,24.4v9.8c0,15.6-8.2,24.4-22.5,24.4
				S124.8,699.5,124.8,683.9z M147.3,701.4c11,0,15.2-6.8,15.2-17.5v-9.8c0-10.7-4.2-17.5-15.2-17.5s-15.2,6.8-15.2,17.5v9.8
				C132.1,694.6,136.3,701.4,147.3,701.4z"/>
			<path class="st3" d="M200.1,683.9v-9.8c0-15.6,8.2-24.4,22.5-24.4s22.5,8.8,22.5,24.4v9.8c0,15.6-8.2,24.4-22.5,24.4
				S200.1,699.5,200.1,683.9z M222.6,701.4c11,0,15.2-6.8,15.2-17.5v-9.8c0-10.7-4.2-17.5-15.2-17.5c-11,0-15.2,6.8-15.2,17.5v9.8
				C207.4,694.6,211.6,701.4,222.6,701.4z"/>
			<path class="st3" d="M258.1,650.5h21c10.6,0,17.3,5.6,17.3,15.3c0,10.8-8.1,15.7-18.1,15.7h-13v26h-7.2V650.5z M278.7,674.9
				c6.1,0,10.3-2.1,10.3-9c0-6.7-4.2-8.9-10.3-8.9h-13.4v17.9H278.7z"/>
			<path class="st3" d="M309.4,650.5h35.1v6.7h-27.7v17.6h25.2v6.7h-25.2v19.4h27.7v6.7h-35.1V650.5z"/>
			<path class="st3" d="M357.5,650.5h13.8l22.1,55.4v-55.4h7.2v57.1h-14.3l-21.6-55v55h-7.2V650.5z"/>
		</g>
	</g>
</g>
<g id="splash">
	<path class="st4" d="M97.8,34.6c-4-9.3,7.5-17.9,12.2-6.2c4.4,11.1,2.3,16.2,0.5,17C105.3,48.1,97.8,34.6,97.8,34.6z"/>
	<path class="st5" d="M174.7,77.5c0.9-0.1,3.2-0.2,6.2-0.8c6.7-1.3,11.4-2.3,13-5.7c0.9-2,0.9-5.1-0.7-6.4
		c-2.1-1.7-5.3,1.1-13.3,1.5c-2.8,0.1-4.2,0.2-5.9-0.5c-4.6-1.9-7.7-7.9-6.1-10.6c0.8-1.3,2.7-1.5,6.7-1.8c7.8-0.7,10.1,0.8,13.3-1
		c2.1-1.2,4.3-3.6,4.3-6.3c0-3.4-3.6-6.6-7.2-7.8c-7.8-2.5-12.4,5.8-21.2,3.9c-5.3-1.2-9.5-5.5-9-7.3c0.6-1.9,5.7-0.6,15-2.7
		c4.8-1.1,12.7-2.8,13.3-6.7c0.4-2.8-3.1-5.4-3.8-5.9c-2.3-1.7-4.8-2-13.7-1.5c-13.4,0.8-17.8,2.1-19.5,2.7c-4.7,1.6-7,2.4-8.2,4.2
		c-2,2.9-1.6,7.3,6.5,24.3c11.6,24.2,16.4,27.4,20.1,28.1C165.2,77.3,169.4,77.9,174.7,77.5z"/>
	<path class="st6" d="M150,61.7c-1-1.5-1.3-2.5-1.5-3.1c-1.3-2.8-6.4-14.1-3.5-16.5c2.2-1.9,9.6,1,13.5,6.3c3.6,5,1.2,8,4.9,13.5
		c4.2,6.2,9.9,6.1,9.9,9.4c-0.1,3.5-6.5,7.8-11.5,6.1c-1.6-0.6-2.7-1.6-3.4-2.6C155.5,70.4,152.8,66.1,150,61.7z"/>
	<path class="st5" d="M120.6,73.9c-5.2-4.8-21.6-20.3-23.3-21.7c-0.9-0.7-4.3-3-5.8-6.9c-0.8-2-2.6-7.1,0.3-11.1
		c2.6-3.6,5.7-3.3,6.1-3.2c3.3,0.5,7.2,4.7,10.2,11.8c2.4,5.5,6,9.4,7.5,11.5c0.6,0.9,4.5,6.9,7.4,6.6c4-0.4-0.9-7.9,0.1-12.4
		c0.7-2.8,4.2-3.5,5.6-2.9c2.3,1,4.1,11.1,6.2,12.2c0.5,0.3,0.9,0.2,1,0.2c1.5-0.3,2.3-3.4,2.2-5.6c0-2-0.7-3.4-3.3-7.7
		c-3.6-6.1-3.5-5.7-4.4-7.5c-1.6-3.2-3.1-6.2-3.2-10.2c-0.1-2.3-0.1-5,1.8-6.8c2.3-2.2,5.8-1.3,6-1.3c2.4,0.6,3.7,2.4,5.1,4.3
		c2.3,3.2,3.1,6.3,3.7,8.7c1.1,4.5,0.5,5.6,1.9,10.1c0.4,1.3,0.9,2.4,1.8,4.5c1.6,3.7,2.9,6.2,5.1,10.5c4.7,9,4.5,8.8,4.8,9.2
		c4.4,5.8,9.6,6.9,9.2,8.5c-0.4,1.7-6.2,1.4-12.2,1.6c-19.4,0.6-33,6.2-33.7,4.2c-0.1-0.3,0.1-0.8,1.3-1.8"/>
	<path class="st5" d="M220.8,59.9c-1.1-2.3-6.2,0.1-13.9-2.6c-1.7-0.6-10.7-3.8-13.9-11.2c-5.1-11.6,5.8-23.8,1-28.1
		c-2.2-1.9-6.3-1.3-8.7,0c-9.1,4.8-10.5,25.5-2.8,39.8c1.4,2.6,9.9,17.5,22.1,16.6C214.3,73.6,222.4,63.2,220.8,59.9z"/>
	<path class="st6" d="M210.1,69.3c0-0.7,0.8-1,1-1.4c0.6-1.1,1.8-2.9,1.3-3.9c-0.4-0.6-1.2-0.4-2.6-0.5c-0.2,0-4.4-0.4-7.8-2.6
		c-1.9-1.2-1.9-2-3.3-2.3c-1.6-0.3-3.8,0.2-4.5,1.6c-1.2,2.4,1.8,6,3.3,7.4c1.1,1,2.1,1.6,2.9,1.9c1.1,0.3,2.2,0.5,3.4,0.8
		c0.7,0,6.4-0.1,6.5-0.6C210.2,69.7,210.1,69.6,210.1,69.3z"/>
	<path class="st5" d="M230,45.6c3-1.8,4.9-3.8,6.1-5.1c2.2-2.3,6.3-6.6,5.1-9.9c-0.8-2.2-3.7-2.9-4.3-3c-4.7-1-9.1,2.8-11.7,5.2
		c-5.7,5.1-8.1,10.7-8.6,10.4c-0.7-0.4,4.2-11.6,3.2-18.2c-0.2-1.5-0.9-3.1-0.9-3.2c-0.7-1.7-1.7-4.3-3.8-5.2c-2.1-0.9-4.7,0.1-6,1
		c-4.9,3.5-0.6,13.1-0.1,29.7c0.5,16.7-3.3,24.9,0.9,27.3c3.1,1.8,18.4-2.1,30.3-1.1c1.2,0.1,2.7,0.2,3-0.5c0.6-1.3-3.4-5.2-7.6-7.6
		c-2.4-1.3-3.7-1.5-6.1-3.3c-1.5-1.1-2.9-2.5-3.5-3.1c-1.2-1.2-0.7-0.8-2.5-2.8c-1.5-1.6-2.2-2.3-2.5-3.5c0,0-0.1-0.7,0-1.2
		C221.4,49.1,225.7,48.2,230,45.6z"/>
	<path class="st5" d="M221.4,49"/>
	<path class="st5" d="M261.2,34.6"/>
	<path class="st6" d="M132.4,70.9c-0.5,0.2-1.9,0.6-3.4-0.4c-1.8-1.2-3-4.2-2.4-5.6c1.1-2.7,7.7,3,12.4-1.2c2.4-2.1,2.6-5.3,4.9-5.6
		c1.7-0.2,3.4,1.2,4.3,2.9c1.1,2.1,0.9,4.5,0.8,5.6c-0.2,1.9-0.7,3.3-1.1,4.1C142.7,70.9,137.6,70.9,132.4,70.9z"/>
	<path class="st4" d="M110.6,76.8c0,0-12.2-6.6-11.5-10.8c0.6-4.2,4.6-4.7,4.6-4.7l16.3,14.9L110.6,76.8z"/>
	<path class="st5" d="M161.9,27.9"/>
	<path class="st5" d="M160.2,65.9"/>
	<path class="st5" d="M169.5,56.7"/>
	<path class="st4" d="M163.8,22.5"/>
	<path class="st6" d="M225.1,74c0.3-0.1,0.2-0.1,1.5-0.8c4.5-2.4,5.2-2.6,5.3-3.2c0.2-1.5-4-3.1-4.9-3.5c-4.2-1.6-6.2-0.8-7.3-2.5
		c-1.1-1.6,0-3.1-1.3-4.4c-0.9-0.9-2.5-1.3-3.7-0.7c-2.6,1.3-2.1,7.6-1.7,11.1c0.1,1,0.2,1.9,0.3,2.6c0.7,0,1.4-0.1,2.1-0.1
		c0.6,0.4,1.3,1.1,1.9,2.1c0.3,0.5,0.6,1,0.7,1.5C220.3,75.3,222.7,74.6,225.1,74z"/>
	<path class="st4" d="M315.2,61c5.3-2,9.9-2.1,11.1-0.1c1.6,2.6-3.5,8.1-5.1,9.8c-2.2,2.3-6.8,7.3-10,5.9c-2.4-1.1-3-5.4-2.3-8.4
		C310.1,63.2,314.7,61.2,315.2,61z"/>
</g>
<g id="ball">
	<circle class="st4" cx="274.4" cy="42.7" r="40.2"/>
	<path class="st7" d="M308.7,57.5c-5,3.2-14.1,7.7-25.6,7.9c-17.7,0.2-18.7-19.1-24.7-32.9c-3.8-8.9-10.3-10.6-14.5-10.7
		c-4.4,6.1-6.9,13.5-6.9,21.6c0,12.2,5.9,23,15,29.8h44.5C301.8,69.1,306.1,63.7,308.7,57.5z"/>
</g>
<g id="becher_farbe">
	<path class="st8" d="M231.1,244.3h-63.7h-12.8c-6.9,0-12.9-5.2-13.9-12L120.3,91.6h51.9h7.3h29.2h7.3H268l-20.4,140.7
		c-1,6.8-7,12-13.9,12H231.1z M346.8,232.3c-1,6.8-7,12-13.9,12h-85c2.9-3,4.9-6.8,5.6-11.1l20.5-141.6h4.7h88.5L346.8,232.3z"/>
	<path class="st9" d="M179.6,76.8h29.2h70c2.4,0,4.4,2,4.4,4.4s-2,4.4-4.4,4.4H275h-58.9h-7.3h-29.2h-7.3h-58.9h-3.8
		c-2.4,0-4.4-2-4.4-4.4s2-4.4,4.4-4.4H179.6z"/>
	<path class="st9" d="M10.4,85.6c-2.4,0-4.4-2-4.4-4.4s2-4.4,4.4-4.4h89.8c-0.6,1.3-1,2.8-1,4.4s0.4,3.1,1,4.4h-86H10.4z"/>
	<path class="st9" d="M378,85.6h-3.8h-86c0.6-1.3,1-2.8,1-4.4s-0.4-3.1-1-4.4H378c2.4,0,4.4,2,4.4,4.4S380.4,85.6,378,85.6z"/>
	<path class="st10" d="M109.6,91.6h4.7l20.5,141.6c0.6,4.3,2.7,8.2,5.6,11.1h-85c-6.9,0-12.9-5.2-13.9-12L21.1,91.6H109.6z"/>
</g>
<g id="shadow">
	<path class="st11" d="M98.1,111l20.1,133.4h22.2c-2.9-3-4.9-6.8-5.6-11.1L114.3,91.6h-4.7H21.1l2.8,19.3H98.1z"/>
	<path class="st12" d="M290.3,111h74.1l2.8-19.3h-88.5h-4.7l-20.5,141.6c-0.6,4.3-2.7,8.2-5.6,11.1h22.2L290.3,111z"/>
	<rect x="117.9" y="92.9" class="st12" width="150.1" height="17.6"/>
</g>
<g id="weiß">
	<line class="st13" x1="43.6" y1="139" x2="246.2" y2="139"/>
	<line class="st13" x1="264.3" y1="139" x2="343.1" y2="139"/>
	<line class="st13" x1="20.2" y1="110.5" x2="367.5" y2="110.5"/>
	<line class="st13" x1="23.4" y1="92.9" x2="370.5" y2="92.9"/>
</g>
<g id="outline">
	<path class="st14" d="M378,70.8h-99.2h-70h-29.2h-70H10.4C4.7,70.8,0,75.5,0,81.2s4.7,10.4,10.4,10.4h4.7l20.5,141.6
		c1.4,9.8,9.9,17.1,19.8,17.1h99.2h12.8h63.7h2.6H333c9.9,0,18.4-7.4,19.8-17.1l20.5-141.6h4.7c5.7,0,10.4-4.7,10.4-10.4
		S383.7,70.8,378,70.8z M179.6,76.8h29.2h70c2.4,0,4.4,2,4.4,4.4s-2,4.4-4.4,4.4H275h-58.9h-7.3h-29.2h-7.3h-58.9h-3.8
		c-2.4,0-4.4-2-4.4-4.4s2-4.4,4.4-4.4H179.6z M10.4,85.6c-2.4,0-4.4-2-4.4-4.4s2-4.4,4.4-4.4h89.8c-0.6,1.3-1,2.8-1,4.4
		s0.4,3.1,1,4.4h-86H10.4z M109.6,91.6h4.7l20.5,141.6c0.6,4.3,2.7,8.2,5.6,11.1h-85c-6.9,0-12.9-5.2-13.9-12L21.1,91.6H109.6z
		 M231.1,244.3h-63.7h-12.8c-6.9,0-12.9-5.2-13.9-12L120.3,91.6h51.9h7.3h29.2h7.3H268l-20.4,140.7c-1,6.8-7,12-13.9,12H231.1z
		 M346.8,232.3c-1,6.8-7,12-13.9,12h-85c2.9-3,4.9-6.8,5.6-11.1l20.5-141.6h4.7h88.5L346.8,232.3z M378,85.6h-3.8h-86
		c0.6-1.3,1-2.8,1-4.4s-0.4-3.1-1-4.4H378c2.4,0,4.4,2,4.4,4.4S380.4,85.6,378,85.6z"/>
</g>
<g id="typo">
</g>
<g id="vorlage" class="st0">
	
		<image style="display:inline;overflow:visible;" width="800" height="800" xlink:href="E9FBCF14.jpg"  transform="matrix(0.7441 0 0 0.7441 -109.4223 -80.3456)">
	</image>
</g>
</svg>
