<?xml version="1.0" encoding="utf-8"?>
<!-- Generator: Adobe Illustrator 27.6.1, SVG Export Plug-In . SVG Version: 6.00 Build 0)  -->
<svg version="1.1" xmlns="http://www.w3.org/2000/svg" xmlns:xlink="http://www.w3.org/1999/xlink" x="0px" y="0px"
	 viewBox="0 0 2043.2 336.9" style="enable-background:new 0 0 2043.2 336.9;" xml:space="preserve">
<style type="text/css">
	.st0{display:none;}
	.st1{display:inline;}
	.st2{fill:#1E274A;stroke:#1E274A;stroke-width:6;stroke-miterlimit:10;}
	.st3{fill:#1E274A;}
	.st4{fill:#F7A941;}
	.st5{fill:#FFCE44;}
	.st6{fill:#FFCE44;stroke:#1E274A;stroke-width:5;stroke-linecap:round;stroke-linejoin:round;stroke-miterlimit:10;}
	.st7{fill:#FFCE44;stroke:#1E274A;stroke-width:5;stroke-linecap:round;stroke-miterlimit:10;}
	.st8{fill:#F07F3C;}
	.st9{fill:#EA5160;}
	.st10{fill:#61C3D9;}
	.st11{fill:#4D9BB3;}
	.st12{fill:#D0364E;}
	.st13{fill:#FFFFFF;}
</style>
<g id="sicherung_00000094582843494556927780000004802511389003463838_" class="st0">
	<g class="st1">
		<g>
			<path class="st2" d="M52.4,705.5h22.4c9.3,0,15.5,6.5,15.5,15.4c0,5.8-2.2,9.4-5.5,11.7c4.3,1.9,7.7,6,7.7,13.5
				c0,10.4-6,16.5-17.1,16.5H52.4V705.5z M72.9,729.8c5.7,0,10.1-2.2,10.1-8.9c0-5.4-3.6-8.7-10.1-8.7H59.6v17.6H72.9z M74.2,755.9
				c6.8,0,10.8-3.3,10.8-9.8c0-6.7-3.9-9.8-10.8-9.8H59.6v19.6H74.2z"/>
			<path class="st2" d="M102.6,755.8h11.9v-43.5h-11.9v-6.8h31.1v6.8h-11.9v43.5h11.9v6.8h-31.1V755.8z"/>
			<path class="st2" d="M147.6,705.5h21c10.6,0,17.3,5.6,17.3,15.3c0,10.8-8.1,15.7-18.1,15.7h-13v26h-7.2V705.5z M168.2,729.9
				c6.1,0,10.3-2.1,10.3-9c0-6.7-4.2-8.9-10.3-8.9h-13.4v17.9H168.2z"/>
			<path class="st2" d="M195.7,738.9v-9.8c0-15.6,8.2-24.4,22.5-24.4s22.5,8.8,22.5,24.4v9.8c0,15.6-8.2,24.4-22.5,24.4
				S195.7,754.5,195.7,738.9z M218.2,756.4c11,0,15.2-6.8,15.2-17.5v-9.8c0-10.7-4.2-17.5-15.2-17.5s-15.2,6.8-15.2,17.5v9.8
				C203,749.6,207.1,756.4,218.2,756.4z"/>
			<path class="st3" d="M270.9,738.9v-9.8c0-15.6,8.2-24.4,22.5-24.4s22.5,8.8,22.5,24.4v9.8c0,15.6-8.2,24.4-22.5,24.4
				S270.9,754.5,270.9,738.9z M293.4,756.4c11,0,15.2-6.8,15.2-17.5v-9.8c0-10.7-4.2-17.5-15.2-17.5c-11,0-15.2,6.8-15.2,17.5v9.8
				C278.2,749.6,282.4,756.4,293.4,756.4z"/>
			<path class="st3" d="M329,705.5h21c10.6,0,17.3,5.6,17.3,15.3c0,10.8-8.1,15.7-18.1,15.7h-13v26H329V705.5z M349.5,729.9
				c6.1,0,10.3-2.1,10.3-9c0-6.7-4.2-8.9-10.3-8.9h-13.4v17.9H349.5z"/>
			<path class="st3" d="M380.3,705.5h35.1v6.7h-27.7v17.6h25.2v6.7h-25.2v19.4h27.7v6.7h-35.1V705.5z"/>
			<path class="st3" d="M428.4,705.5h13.8l22.1,55.4v-55.4h7.2v57.1h-14.3l-21.6-55v55h-7.2V705.5z"/>
		</g>
	</g>
</g>
<g id="splash">
	<g>
		<g>
			<path class="st4" d="M133.6,97.4c-6.7-2.6-12.7-3.4-16.7-11.6c-4-8.3,6.9-15.2,15.6-8.9c8.7,6.3,36.7,21.2,36.7,21.2
				S140.2,100,133.6,97.4z"/>
		</g>
		<g>
			<path class="st3" d="M149.1,102.2c-6.9,0-13.6-0.4-16.8-1.6c-1.1-0.4-2.1-0.8-3.2-1.2c-5.6-2-11.4-4-15.3-12.2
				c-2.3-4.7-1.2-9.9,2.8-13.2c4-3.3,11.3-4.7,17.8,0.1c8.4,6.1,36,20.7,36.3,20.9l10.5,5.6l-11.9,0.8
				C166.6,101.6,157.7,102.2,149.1,102.2z M125.2,77.8c-1.7,0-3.3,0.6-4.3,1.5c-0.9,0.8-2.3,2.4-1,5c2.7,5.6,6.4,6.9,11.5,8.7
				c1.1,0.4,2.2,0.8,3.4,1.2l0,0c2.9,1.2,12.7,1.3,22,1c-9-4.9-21-11.7-26.4-15.6C128.7,78.3,126.9,77.8,125.2,77.8z"/>
		</g>
	</g>
	<g>
		<g>
			<path class="st5" d="M413.9,64.8c6.3-2.3,10.2-4.4,9.9-11.7c-0.3-5.6-8.3-12.3-16.8-5.4c-5.1,4.1-13.7,20-13.7,20
				S409.8,66.3,413.9,64.8z"/>
		</g>
		<g>
			<path class="st3" d="M393.3,71.1c-1.1,0-2.2-0.6-2.8-1.5c-0.7-1-0.7-2.4-0.1-3.5c0.9-1.7,9.1-16.6,14.6-21
				c4.6-3.7,10-4.7,14.7-2.6c4.3,1.9,7.4,6.2,7.6,10.5c0.4,9.6-5.5,12.6-12.1,15c0,0,0,0,0,0c-4.4,1.6-19.8,3-21.5,3.1
				C393.5,71.1,393.4,71.1,393.3,71.1z M413.9,64.8L413.9,64.8L413.9,64.8z M414.4,48.2c-1.7,0-3.5,0.7-5.2,2.2
				c-2.4,2-6.4,7.9-9.6,13.3c5.5-0.6,11.3-1.4,13.2-2.1l0,0c6.2-2.3,7.9-3.6,7.7-8.3c-0.1-1.5-1.3-3.6-3.6-4.6
				C416,48.4,415.2,48.2,414.4,48.2z"/>
		</g>
	</g>
	<g>
		<g>
			<path class="st4" d="M132.3,18.5c-2.6-6.1-4.9-10-12.1-9.3c-5.6,0.5-11.8,8.9-4.6,17c4.4,4.9,20.6,12.7,20.6,12.7
				S134,22.5,132.3,18.5z"/>
		</g>
		<g>
			<path class="st3" d="M136.3,42.3c-0.5,0-1-0.1-1.5-0.3c-1.7-0.8-17-8.3-21.7-13.5c-4-4.4-5.2-9.7-3.3-14.6
				c1.7-4.4,5.8-7.7,10.1-8.1c9.6-0.9,12.8,4.8,15.6,11.4l0,0c1.8,4.3,3.9,19.6,4.2,21.3c0.2,1.2-0.4,2.5-1.4,3.2
				C137.7,42.1,137,42.3,136.3,42.3z M121.9,12.5c-0.4,0-0.9,0-1.4,0.1c-1.5,0.1-3.5,1.5-4.4,3.8c-0.9,2.4-0.3,5,2,7.6
				c2.1,2.3,8.2,6,13.8,9c-0.9-5.4-2-11.2-2.7-13.1c0,0,0,0,0,0C126.9,14.3,125.5,12.5,121.9,12.5z"/>
		</g>
	</g>
	<g>
		<g>
			<path class="st4" d="M389.1,94.8c2.3,0,11.4-10.8,2.2-15.8c-2-1.1-5.8-1.9-11.1,0.1c-0.5,0.2-7.6,3.4-8.7,8.3l-3.9,7.3H389.1z"/>
		</g>
		<g>
			<path class="st3" d="M389.1,98.2h-27.3l6.4-12c1.9-6.5,10.3-10,10.6-10.2c7.4-2.8,12.3-0.9,14,0c4.7,2.6,6.7,6.9,5.5,12
				C397.2,92.7,392.8,98.2,389.1,98.2z M388.3,91.6L388.3,91.6L388.3,91.6z M373.2,91.4h15.3c1.1-0.8,3.4-3.7,3.4-6.2
				c0-0.9-0.2-2-2.3-3.1c-0.5-0.3-3.3-1.6-8.3,0.3c-2,0.8-6.1,3.5-6.6,5.9l-0.1,0.4L373.2,91.4z"/>
		</g>
	</g>
	<g>
		<g>
			<path class="st6" d="M186.3,57.1"/>
		</g>
	</g>
	<g>
		<g>
			<path class="st5" d="M242.1,85.4c-5.1-7.3,1.3-17.9-1.8-31.7c-3.2-15.6-14.4-25.4-7.9-36.6c5.6-9.7,19.6-6.3,16.7,4.6
				c-1.3,4.8-0.6,14.7,0.4,15.7c7,7,8.9-13.9,20.5-12.6c5.6,0.7,6.5,8.1,6.5,10.3c-0.2,5.5-10.6,12.9-13.2,15.3
				c-4.3,3.8-6.9,6.3-1.5,9.9c12.1,8.1,23.2,25.8,15.9,32.8c-4.1,3.9-10.1,1.7-12.7-3.8c-4.1-8.5-10-10.8-13.2-7.2"/>
		</g>
		<g>
			<path class="st3" d="M272.8,98.5c-0.6,0-1.2-0.1-1.8-0.2c-3.8-0.7-7.3-3.5-9.2-7.5c-2.1-4.4-4.8-6.7-6.4-6.9
				c-0.5-0.1-0.9,0.1-1.2,0.5c-1.3,1.4-3.4,1.5-4.8,0.3c-1.4-1.3-1.5-3.4-0.3-4.8c1.9-2.1,4.4-3.1,7.2-2.7
				c4.4,0.6,8.6,4.5,11.6,10.7c1,2.1,2.6,3.5,4.3,3.8c1.1,0.2,2.1-0.1,3-1c0.4-0.4,1.5-1.5,1.3-4.4c-0.6-6.9-8.2-17.5-16.6-23.1
				c-1.1-0.7-4.3-2.9-4.5-6.3c-0.3-3.7,2.7-6.3,5.6-8.9c0.5-0.4,1.1-1,1.9-1.6c2.5-2,10-8.2,10.1-11.2c0-0.8-0.4-6.4-3.5-6.8
				c-3.6-0.4-5.9,2.6-8.9,7.1c-2.2,3.4-4.3,6.5-7.9,6.9c-2,0.2-3.9-0.6-5.7-2.4c-0.6-0.6-1.8-1.8-2.1-8.7c-0.1-1.9-0.2-6.8,0.8-10.3
				c0.7-2.8,0-4.8-2.1-5.6c-2.5-1-6.2-0.1-8.4,3.6c-3.1,5.3-1.1,10.1,2.6,18.2c2.1,4.6,4.5,9.8,5.7,16c1.6,7,0.9,13.3,0.3,18.4
				c-0.6,5.1-1,9.2,0.9,12c1.1,1.5,0.7,3.7-0.8,4.7c-1.5,1.1-3.7,0.7-4.7-0.8c-3.4-4.9-2.8-10.6-2.1-16.6c0.5-4.8,1.1-10.3-0.2-16.2
				c-1.1-5.5-3.2-10.1-5.3-14.6c-3.7-8.2-7.2-15.9-2.3-24.4c4.1-7.1,11.7-8.6,16.9-6.5c5.3,2.2,7.7,7.6,6,13.7
				c-1,3.5-0.6,10.5-0.1,12.7c0.7-0.7,1.9-2.5,2.8-3.7c2.9-4.4,7.4-11.1,15.4-10.1c3.9,0.5,9.8,4.6,9.5,13.8
				c-0.2,5.6-6.6,11.3-12.6,16.2c-0.7,0.6-1.3,1.1-1.7,1.4c-1,0.9-2.8,2.5-3.3,3.4c0.2,0.2,0.6,0.6,1.4,1.2c9,6,18.8,18.2,19.6,28.2
				c0.4,4.1-0.8,7.5-3.3,9.9C277.9,97.5,275.4,98.5,272.8,98.5z M252.3,35.7L252.3,35.7L252.3,35.7z"/>
		</g>
	</g>
	<g>
		<g>
			<path class="st5" d="M243,78.4c-4,1.9-11.9,5.2-16.5,2.8c-4.6-2.4-5.3-20.2,3.9-17.4c9.6,2.8,12.2-7,8.7-12.9
				c-3.7-6.2-12-9.1-18.9-6.3c-6.9,2.7-11.4,7.6-13.7,14.9c-2.2,6.7-3.8,26.6,10.7,36.8H240C255.9,96.2,254.9,72.8,243,78.4z"/>
		</g>
		<g>
			<path class="st3" d="M240,99.6h-24l-0.9-0.6c-15.5-10.8-14.7-32-12-40.6c2.7-8.3,7.8-13.9,15.7-17c8.4-3.3,18.5,0.1,23.1,7.7
				c2.8,4.6,2.6,10.8-0.4,14.7c-2.7,3.5-7.1,4.6-12.2,3.1c-1.2-0.3-1.5-0.1-2,0.8c-1.7,3.2-0.5,9.4,0.7,10.4
				c0.8,0.4,4.1,1.5,13.4-2.9l0,0c4-1.9,7.9-1.5,10.6,1c3.3,3.1,4.2,8.8,2.1,14C252,96.1,246.6,99.6,240,99.6z M218.2,92.8H240
				c5.2,0,7.2-3.1,7.9-5c1.1-2.7,0.6-5.5-0.4-6.5c-0.6-0.6-1.6-0.5-3,0.2c-8.8,4.2-15.2,5-19.6,2.7c-4.9-2.6-6.3-12.7-3.9-18.6
				c1.9-4.5,5.8-6.5,10.4-5.1c2.3,0.7,3.9,0.4,4.8-0.8c1.3-1.7,1.3-4.9,0-7.1c-2.9-4.8-9.5-7-14.8-4.9c-6,2.4-9.7,6.4-11.8,12.8
				c-0.8,2.5-1.9,8.6-0.8,15.5C210,83.3,213.2,88.9,218.2,92.8z"/>
		</g>
	</g>
	<g>
		<g>
			<path class="st5" d="M185.3,96.2c0,0-12-19.7-14.7-31.6c-1.7-7.3-3.1-17.2,5.6-24.1c4.4-3.5,8.4-6.8,14.6-8
				c9.4-1.9,12.7,10.4,5.6,15.8c-4.7,3.6-7.7-1.5-12.1,3.1c-3,3.2-3.6,8.1,0,10.6c4.3,3.1,5.2,1,8.6-1.2c4.3-3.3,8.2-3,10.4-1
				c1.1,1,1.8,2.4,2,4.1c0.2,1.8-0.2,3.8-1.4,5.9c-2.1,3.4-7.8,1-10.2,4.5c-2.4,3.6-0.2,7.9,3.8,9.5c4.7,2.3,8.5-0.2,12.3-2.8
				c8.4-5.7,16.6,15.1-0.4,15.1h-62c-22.3-31.3-25-25.6-39.5-40.4c-13.5-13.1-1.8-33.2,11.9-25.7c11.7,6.4,12.5,40.3,27.9,45.5
				c3.8-0.5-7.3-13.1-5.7-19.3c1.1-4.5,4.4-4.5,6.7-2.6c4.5,3.6,5.3,14.1,9.1,12.2c10.4-5.1-20.6-51.8,1.7-54.9
				c21.9-3,4.9,37.4,11.2,53.6"/>
		</g>
		<g>
			<path class="st3" d="M185.3,99.6C185.3,99.6,185.3,99.6,185.3,99.6l-39.7,0l-1-1.4c-14.4-20.1-20.4-24.6-26.7-29.4
				c-3.6-2.7-7.2-5.4-12.4-10.7c-8.9-8.6-8.4-20.1-3.4-26.9c4.7-6.4,12.3-8,19.3-4.1c6.4,3.6,9.7,12.7,13.2,22.4
				c1.3,3.6,2.6,7.2,4,10.5c-0.3-1.6-0.4-3.1,0-4.5c1.1-4.2,3.6-5.6,5-6.1c2.3-0.8,5-0.2,7.2,1.6c2.6,2.1,4.1,5.5,5.3,8.5
				c0.1,0.3,0.3,0.6,0.4,1c-0.3-3.9-2.5-11.2-3.8-15.6c-3.7-12-7.5-24.5-2.8-31.9c1.9-3,4.9-4.8,9-5.3c4.7-0.6,8.4,0.3,11,2.9
				c5.6,5.4,4.8,16.1,3.7,27.7c0.1-0.1,0.3-0.2,0.4-0.3l0.2-0.1c4.4-3.5,9-7.2,15.9-8.6c5.4-1.1,10.2,1.3,12.4,6.1
				c2.1,4.7,1.4,11.6-4,15.7c-3.4,2.6-6.4,2.1-8.4,1.9c-1.7-0.2-2.2-0.3-3.3,0.9c-1.1,1.1-1.6,2.5-1.5,3.8c0.1,0.7,0.4,1.3,1,1.8
				c1.2,0.9,1.7,0.9,1.7,0.9c0.1-0.1,0.8-0.6,1.2-0.9c0.5-0.4,1-0.8,1.7-1.2c6.3-4.8,11.8-3.4,14.7-0.7c1.7,1.6,2.8,3.8,3,6.2
				c0.3,2.6-0.3,5.4-1.8,7.9c-1.9,3.2-5.1,3.6-7.4,3.9c-1.6,0.2-2.6,0.4-2.9,0.9c-0.4,0.6-0.5,1.3-0.3,2c0.3,1,1.3,2,2.5,2.5
				l0.2,0.1c2.7,1.3,4.9,0.2,8.9-2.5c3.2-2.2,7-2.1,10.1,0.3c4,3,5.7,8.8,4.2,13.5c-0.8,2.3-3.5,7.5-12.7,7.5L185.3,99.6
				C185.3,99.6,185.3,99.6,185.3,99.6z M187.2,92.8h22.1c2.4,0,5.5-0.5,6.3-2.9c0.7-2.1-0.4-4.8-1.8-5.9c-0.9-0.7-1.5-0.5-2.2-0.1
				c-3.8,2.6-9.1,6.1-15.6,3.1c-3.1-1.3-5.5-3.8-6.4-6.7c-0.8-2.7-0.4-5.4,1.2-7.8c2.1-3.1,5.4-3.5,7.6-3.8c0.8-0.1,2.3-0.3,2.4-0.6
				c0.9-1.6,1-2.9,0.9-3.7c-0.1-0.8-0.4-1.5-0.9-2c-1.3-1.2-3.6-0.7-6,1.2l-0.2,0.1c-0.5,0.4-1,0.7-1.4,1c-2.8,2.2-5.8,3.8-11,0.2
				c-2.2-1.6-3.6-3.9-3.9-6.6c-0.3-3.2,1-6.6,3.4-9.1c3.5-3.7,6.9-3.2,9.1-2.9c1.6,0.2,2.2,0.3,3.4-0.5c2.6-2,2.9-5.3,1.9-7.5
				c-0.6-1.4-2-2.8-4.9-2.3c-5.3,1.1-8.9,3.9-13,7.2l-0.2,0.1c-6.4,5.1-6.4,11.9-4.4,20.6c0,0,0,0.1,0,0.1
				C176.1,73.2,184.4,87.9,187.2,92.8z M149.1,92.8h30.3c-3.8-6.7-10-18.6-12.1-27.2c-2.6-6.8-1.6-16.7-0.7-26.3
				c0.9-9.6,2-20.5-1.5-23.8c-0.4-0.4-1.6-1.6-5.4-1c-2.7,0.4-3.7,1.5-4.2,2.3c-3,4.8,0.6,16.7,3.6,26.2c3.7,12.1,6.9,22.6,0,26.1
				c-1.7,0.8-3.1,0.6-4.1,0.3c-2.7-1-3.9-3.8-5.3-7c-0.9-2.1-2.1-4.8-3.4-5.9c-0.3-0.3-0.6-0.4-0.7-0.4c-0.1,0.1-0.3,0.5-0.5,1.2
				c-0.5,1.9,2.1,6.9,3.7,9.8c2.3,4.3,3.8,7.2,2.5,9.7c-0.6,1.2-1.8,2-3.3,2.2l-0.8,0.1l-0.7-0.2c-9.9-3.3-14.2-15.4-18.4-27
				c-2.9-8.1-5.9-16.4-10.1-18.7c-4-2.2-7.9-1.4-10.6,2.2c-3.3,4.5-3.5,12.1,2.7,18.1c4.8,4.9,8.3,7.5,11.7,10
				C128.6,68.4,134.9,73.1,149.1,92.8z"/>
		</g>
	</g>
	<g>
		<g>
			<path class="st7" d="M198.6,58.9"/>
		</g>
	</g>
</g>
<g id="Ebene_13">
</g>
<g id="ball">
	<g>
		<path class="st4" d="M328,6.8c-28.3,0-51.3,23-51.3,51.3c0,13.3,5.1,25.5,13.5,34.6h75.7c8.4-9.1,13.5-21.3,13.5-34.6
			C379.3,29.8,356.3,6.8,328,6.8z"/>
	</g>
	<path class="st8" d="M366.1,92.8c3.7-4.3,6.8-9.2,8.9-14.5c-6.9,4.4-19.4,10.8-35.1,11c-24.3,0.3-25.8-26.6-34-45.8
		c-5.3-12.3-14.2-14.7-19.9-14.9c-6,8.5-9.5,18.8-9.5,30c0,13.1,4.8,25.1,12.8,34.2H366.1z"/>
</g>
<g id="becher_farbe">
	<path class="st9" d="M314.4,328.7h-86.6h-17.4c-9.4,0-17.5-7-18.9-16.3L163.7,121h70.6h9.9H284h9.9h70.6l-27.7,191.4
		c-1.3,9.3-9.5,16.3-18.9,16.3H314.4z M471.7,312.4c-1.3,9.3-9.5,16.3-18.9,16.3H337.3c4-4,6.7-9.3,7.6-15.2L372.8,121h6.4h120.3
		L471.7,312.4z"/>
	<path class="st10" d="M149.1,121h6.4l27.9,192.6c0.9,5.9,3.6,11.1,7.6,15.1H75.3c-9.4,0-17.5-7-18.9-16.3L28.7,121H149.1z"/>
</g>
<g id="shadow">
	<path class="st11" d="M133.4,147.3l27.4,181.4h30.2c-4-4-6.7-9.3-7.6-15.1L155.4,121h-6.4H28.7l3.8,26.3H133.4z"/>
	<path class="st12" d="M394.8,147.3h100.8l3.8-26.3H379.2h-6.4l-27.9,192.6c-0.9,5.9-3.6,11.1-7.6,15.2h30.2L394.8,147.3z"/>
	<polygon class="st12" points="284,121 244.2,121 234.3,121 163.7,121 167.4,146.7 360.8,146.7 364.5,121 293.9,121 	"/>
</g>
<g id="weiß">
	<path class="st13" d="M244.2,100.9H284h95.2c3.3,0,6,2.7,6,6c0,3.3-2.7,6-6,6H374h-80.1H284h-39.8h-9.9h-80.1h-5.2
		c-3.3,0-6-2.7-6-6c0-3.3,2.7-6,6-6H244.2z"/>
	<path class="st13" d="M14.1,112.9c-3.3,0-6-2.7-6-6c0-3.3,2.7-6,6-6h122.1c-0.9,1.8-1.3,3.8-1.3,6c0,2.1,0.5,4.2,1.3,6H19.3H14.1z"
		/>
	<path class="st13" d="M514.1,112.9h-5.2H391.9c0.9-1.8,1.3-3.8,1.3-6c0-2.1-0.5-4.2-1.3-6h122.1c3.3,0,6,2.7,6,6
		C520,110.2,517.4,112.9,514.1,112.9z"/>
	<path class="st13" d="M164.3,182.1h-105c-1.9,0-3.4,1.5-3.4,3.4s1.5,3.4,3.4,3.4h106L164.3,182.1z"/>
	<path class="st13" d="M155.4,121h-6.4H28.9c0,0.1-0.1,0.1-0.1,0.2l0.6,3.9c0.6,0.6,1.5,1,2.4,1h124.4L155.4,121z"/>
	<polygon class="st13" points="33,150.1 159.6,150.1 158.7,143.3 32,143.3 	"/>
	<path class="st13" d="M173.5,188.9h161.3c1.9,0,3.4-1.5,3.4-3.4s-1.5-3.4-3.4-3.4H172.5L173.5,188.9z"/>
	<path class="st13" d="M466.7,182.1H363.9l-1,6.8h103.7c1.9,0,3.4-1.5,3.4-3.4S468.6,182.1,466.7,182.1z"/>
	<polygon class="st13" points="167.9,150.1 360.3,150.1 361.3,143.3 166.9,143.3 	"/>
	<polygon class="st13" points="284,121 244.2,121 234.3,121 163.7,121 164.4,126.2 363.8,126.2 364.5,121 293.9,121 	"/>
	<polygon class="st13" points="368.6,150.1 495.2,150.1 496.2,143.3 369.5,143.3 	"/>
	<polygon class="st13" points="372.8,121 372,126.2 498.7,126.2 499.5,121 379.2,121 	"/>
</g>
<g id="outline">
	<path class="st3" d="M514.1,92.8H379.2h-4.5c7.2-9.7,11.5-21.7,11.5-34.6C386.1,26.1,360.1,0,328,0s-58.1,26.1-58.1,58.1
		c0,13,4.3,25,11.5,34.6h-37.1h-95.2H14.1C6.3,92.8,0,99.1,0,106.9S6.3,121,14.1,121h6.4l27.9,192.6c1.9,13.3,13.5,23.3,26.9,23.3
		h134.9h17.4h86.6h3.6h134.9c13.4,0,25-10,26.9-23.3L507.7,121h6.4c7.8,0,14.1-6.3,14.1-14.1S521.9,92.8,514.1,92.8z M276.7,58.1
		c0-28.3,23-51.3,51.3-51.3s51.3,23,51.3,51.3c0,13.3-5.1,25.5-13.5,34.6h-75.7C281.8,83.6,276.7,71.5,276.7,58.1z M149.1,100.9
		h95.2H284h95.2c3.3,0,6,2.7,6,6s-2.7,6-6,6H374h-80.1H284h-39.8h-9.9h-80.1h-5.2c-3.3,0-6-2.7-6-6S145.8,100.9,149.1,100.9z
		 M19.3,112.9h-5.2c-3.3,0-6-2.7-6-6s2.7-6,6-6h122.1c-0.9,1.8-1.3,3.8-1.3,6s0.5,4.2,1.3,6H19.3z M75.3,328.7
		c-9.4,0-17.5-7-18.9-16.3L28.7,121h120.3h6.4l27.9,192.6c0.9,5.9,3.6,11.1,7.6,15.1H75.3z M317.9,328.7h-3.6h-86.6h-17.4
		c-9.4,0-17.5-7-18.9-16.3L163.7,121h70.6h9.9H284h9.9h70.6l-27.7,191.4C335.4,321.7,327.3,328.7,317.9,328.7z M471.7,312.4
		c-1.3,9.3-9.5,16.3-18.9,16.3H337.3c4-4,6.7-9.3,7.6-15.2L372.8,121h6.4h120.3L471.7,312.4z M514.1,112.9h-5.2H391.9
		c0.9-1.8,1.3-3.8,1.3-6s-0.5-4.2-1.3-6h122.1c3.3,0,6,2.7,6,6S517.4,112.9,514.1,112.9z"/>
</g>
<g id="Typo">
	<g>
		<g>
			<path class="st9" d="M1412.5,95.7c-53.8,0-85.8,34.5-85.8,92.2v32.9c0,57.7,32.1,92.2,85.8,92.2c53.8,0,85.8-34.5,85.8-92.2
				v-32.9C1498.3,130.2,1466.2,95.7,1412.5,95.7z M1453.4,187.9v32.9c0,43.1-21.9,48.6-41,48.6c-19.1,0-41-5.5-41-48.6v-32.9
				c0-43.1,21.9-48.6,41-48.6C1431.5,139.2,1453.4,144.8,1453.4,187.9z"/>
		</g>
	</g>
	<g>
		<g>
			<path class="st9" d="M1607.3,98.2h-80.6v212.3h44.3v-87.5h33.5c43.1,0,71-24.8,71-63.1C1675.6,121.8,1649.4,98.2,1607.3,98.2z
				 M1630.4,160.1c0,12.7-4,20.1-24.5,20.1H1571v-39.9h34.9C1626.3,140.3,1630.4,147.9,1630.4,160.1z"/>
		</g>
	</g>
	<g>
		<g>
			<polygon class="st9" points="1702.7,310.5 1840.9,310.5 1840.9,267.8 1747.6,267.8 1747.6,222.7 1832.4,222.7 1832.4,180 
				1747.6,180 1747.6,140.9 1840.9,140.9 1840.9,98.2 1702.7,98.2 			"/>
		</g>
	</g>
	<g>
		<g>
			<polygon class="st9" points="1998.8,98.2 1998.8,242.3 1941.4,98.2 1916.5,98.2 1902.2,98.2 1878,98.2 1878,310.5 1922.4,310.5 
				1922.4,168.5 1978.1,310.5 2004.2,310.5 2019,310.5 2043.2,310.5 2043.2,98.2 			"/>
		</g>
	</g>
	<g>
		<g>
			<path class="st9" d="M721.4,197.9c8.1-9.8,12.2-22.4,12.2-37.7c0-35.9-26.2-62-62.2-62h-85.6v212.3h87.2
				c42.4,0,67.7-24.5,67.7-65.5C740.7,220.4,731.2,206.1,721.4,197.9z M630.1,222.1h39.3c23.3,0,26.4,11.5,26.4,22.8
				c0,9.8-2.7,22.8-26.4,22.8h-39.3V222.1z M664.7,180h-34.6v-39.1h34.6c15.9,0,23.9,6.5,23.9,19.3C688.6,170.4,685.7,180,664.7,180
				z"/>
		</g>
	</g>
	<g>
		<g>
			<polygon class="st9" points="779.9,141.2 779.9,141.2 779.9,267.5 779.9,267.5 780,310.5 825.1,310.5 824.8,267.5 824.8,267.5 
				824.8,141.2 824.8,141.2 824.7,98.2 780,98.2 			"/>
		</g>
	</g>
	<g>
		<g>
			<path class="st9" d="M956.5,98.2h-80.6v212.3h44.3v-87.5h33.5c43.1,0,71-24.8,71-63.1C1024.7,121.8,998.6,98.2,956.5,98.2z
				 M979.6,160.1c0,12.7-4,20.1-24.5,20.1h-34.9v-39.9h34.9C975.5,140.3,979.6,147.9,979.6,160.1z"/>
		</g>
	</g>
	<g>
		<g>
			<path class="st9" d="M1130,95.7c-53.8,0-85.8,34.5-85.8,92.2v32.9c0,57.7,32.1,92.2,85.8,92.2s85.8-34.5,85.8-92.2v-32.9
				C1215.8,130.2,1183.7,95.7,1130,95.7z M1170.9,187.9v32.9c0,43.1-21.9,48.6-41,48.6c-19.1,0-41-5.5-41-48.6v-32.9
				c0-43.1,21.9-48.6,41-48.6C1149.1,139.2,1170.9,144.8,1170.9,187.9z"/>
		</g>
	</g>
	<g>
	</g>
	<g>
	</g>
	<g>
	</g>
	<g>
	</g>
	<g>
	</g>
	<g>
	</g>
</g>
</svg>
