<?xml version="1.0" encoding="utf-8"?>
<!-- Generator: Adobe Illustrator 27.5.0, SVG Export Plug-In . SVG Version: 6.00 Build 0)  -->
<svg version="1.1" xmlns="http://www.w3.org/2000/svg" xmlns:xlink="http://www.w3.org/1999/xlink" x="0px" y="0px"
	 viewBox="0 0 388.4 247.7" style="enable-background:new 0 0 388.4 247.7;" xml:space="preserve">
<style type="text/css">
	.st0{display:none;}
	.st1{display:inline;}
	.st2{fill:#1E274A;stroke:#1E274A;stroke-width:6;stroke-miterlimit:10;}
	.st3{fill:#1E274A;}
	.st4{fill:#F7A941;}
	.st5{fill:#FFCE44;}
	.st6{fill:#FFCE44;stroke:#1E274A;stroke-width:5;stroke-linecap:round;stroke-linejoin:round;stroke-miterlimit:10;}
	.st7{fill:#FFCE44;stroke:#1E274A;stroke-width:5;stroke-linecap:round;stroke-miterlimit:10;}
	.st8{fill:#F07F3C;}
	.st9{fill:#EA5160;}
	.st10{fill:#61C3D9;}
	.st11{fill:#4D9BB3;}
	.st12{fill:#D0364E;}
	.st13{fill:#FFFFFF;}
</style>
<g id="sicherung_00000094582843494556927780000004802511389003463838_" class="st0">
</g>
<g id="splash">
	<g>
		<g>
			<path class="st4" d="M98.2,71.6c-4.9-1.9-9.3-2.5-12.3-8.6C83,57,91,51.9,97.4,56.5c6.4,4.6,27,15.6,27,15.6
				S103.1,73.6,98.2,71.6z"/>
		</g>
		<g>
			<path class="st3" d="M109.6,75.1c-5.1,0-10-0.3-12.3-1.2c-0.8-0.3-1.6-0.6-2.3-0.9c-4.1-1.5-8.4-3-11.3-8.9
				c-1.7-3.5-0.9-7.3,2-9.7c2.9-2.4,8.3-3.5,13.1,0c6.2,4.5,26.5,15.3,26.7,15.4l7.7,4.1l-8.7,0.6C122.5,74.7,115.9,75.1,109.6,75.1
				z M92.1,57.2c-1.3,0-2.4,0.4-3.2,1.1c-0.7,0.6-1.7,1.8-0.7,3.7c2,4.1,4.7,5.1,8.4,6.4c0.8,0.3,1.7,0.6,2.5,0.9l0,0
				c2.2,0.9,9.3,0.9,16.2,0.7c-6.6-3.6-15.5-8.6-19.4-11.5C94.6,57.6,93.3,57.2,92.1,57.2z"/>
		</g>
	</g>
	<g>
		<g>
			<path class="st5" d="M304.3,47.7c4.6-1.7,7.5-3.2,7.3-8.6c-0.2-4.1-6.1-9-12.3-4c-3.7,3-10.1,14.7-10.1,14.7
				S301.3,48.8,304.3,47.7z"/>
		</g>
		<g>
			<path class="st3" d="M289.2,52.3c-0.8,0-1.6-0.4-2.1-1.1c-0.5-0.8-0.5-1.8-0.1-2.6c0.7-1.2,6.7-12.2,10.7-15.4
				c3.4-2.8,7.3-3.4,10.8-1.9c3.2,1.4,5.4,4.5,5.6,7.7c0.3,7.1-4,9.2-8.9,11c0,0,0,0,0,0c-3.2,1.2-14.5,2.2-15.8,2.3
				C289.3,52.3,289.2,52.3,289.2,52.3z M304.3,47.7L304.3,47.7L304.3,47.7z M304.7,35.5c-1.2,0-2.5,0.5-3.8,1.6
				c-1.8,1.4-4.7,5.8-7.1,9.8c4-0.4,8.3-1,9.7-1.5l0,0c4.6-1.7,5.8-2.6,5.6-6.1c0-1.1-1-2.6-2.6-3.4
				C305.9,35.6,305.3,35.5,304.7,35.5z"/>
		</g>
	</g>
	<g>
		<g>
			<path class="st4" d="M97.3,13.6c-1.9-4.5-3.6-7.4-8.9-6.8c-4.1,0.4-8.7,6.6-3.4,12.5c3.2,3.6,15.2,9.3,15.2,9.3
				S98.6,16.5,97.3,13.6z"/>
		</g>
		<g>
			<path class="st3" d="M100.2,31.1c-0.4,0-0.7-0.1-1.1-0.2c-1.3-0.6-12.5-6.1-16-9.9c-2.9-3.2-3.8-7.2-2.4-10.7
				c1.3-3.3,4.2-5.7,7.4-6c7-0.7,9.4,3.6,11.5,8.4l0,0c1.4,3.2,2.9,14.4,3.1,15.7c0.1,0.9-0.3,1.8-1,2.4
				C101.2,30.9,100.7,31.1,100.2,31.1z M89.6,9.2c-0.3,0-0.6,0-1,0.1c-1.1,0.1-2.6,1.1-3.2,2.8c-0.7,1.8-0.2,3.7,1.5,5.6
				c1.5,1.7,6.1,4.4,10.1,6.6c-0.6-4-1.4-8.3-2-9.6c0,0,0,0,0,0C93.3,10.5,92.3,9.2,89.6,9.2z"/>
		</g>
	</g>
	<g>
		<g>
			<path class="st4" d="M286.1,69.7c1.7,0,8.4-7.9,1.6-11.6c-1.5-0.8-4.3-1.4-8.2,0.1c-0.4,0.2-5.6,2.5-6.4,6.1l-2.9,5.4H286.1z"/>
		</g>
		<g>
			<path class="st3" d="M286.1,72.2H266l4.7-8.8c1.4-4.8,7.5-7.4,7.8-7.5c5.4-2.1,9-0.7,10.3,0c3.5,1.9,5,5.1,4,8.8
				C292,68.1,288.8,72.2,286.1,72.2z M285.5,67.3L285.5,67.3L285.5,67.3z M274.4,67.2h11.3c0.8-0.6,2.5-2.7,2.5-4.6
				c0-0.6-0.2-1.5-1.7-2.3c-0.4-0.2-2.4-1.2-6.1,0.2c-1.5,0.6-4.5,2.5-4.9,4.3l-0.1,0.3L274.4,67.2z"/>
		</g>
	</g>
	<g>
		<g>
			<path class="st5" d="M178,62.8c-3.8-5.3,1-13.1-1.3-23.3c-2.3-11.5-10.6-18.7-5.8-26.9C175,5.5,185.2,8,183.1,16
				c-1,3.6-0.5,10.8,0.3,11.5c5.2,5.2,6.5-10.3,15.1-9.3c4.1,0.5,4.8,6,4.8,7.6c-0.2,4-7.8,9.5-9.7,11.2c-3.2,2.8-5,4.7-1.1,7.3
				c8.9,6,17,19,11.7,24.1c-3,2.9-7.4,1.3-9.4-2.8c-3-6.2-7.4-7.9-9.7-5.3"/>
		</g>
		<g>
			<path class="st3" d="M200.6,72.4c-0.4,0-0.9,0-1.4-0.1c-2.8-0.5-5.4-2.6-6.8-5.5c-1.6-3.3-3.5-4.9-4.7-5.1
				c-0.4-0.1-0.6,0-0.9,0.3c-0.9,1-2.5,1.1-3.5,0.2s-1.1-2.5-0.2-3.5c1.4-1.5,3.3-2.2,5.3-2c3.2,0.5,6.3,3.3,8.5,7.8
				c0.7,1.5,1.9,2.6,3.2,2.8c0.8,0.1,1.6-0.1,2.2-0.7c0.3-0.3,1.1-1.1,0.9-3.2c-0.4-5.1-6.1-12.8-12.2-17c-0.8-0.5-3.1-2.1-3.3-4.7
				c-0.2-2.7,2-4.7,4.1-6.6c0.3-0.3,0.8-0.7,1.4-1.2c1.8-1.5,7.4-6,7.4-8.3c0-0.6-0.3-4.7-2.5-5c-2.6-0.3-4.3,1.9-6.6,5.3
				c-1.6,2.5-3.2,4.8-5.8,5.1c-1.5,0.1-2.9-0.4-4.2-1.8c-0.4-0.4-1.3-1.3-1.5-6.4c-0.1-1.4-0.1-5,0.6-7.6c0.5-2,0-3.5-1.5-4.1
				c-1.8-0.8-4.6-0.1-6.2,2.7c-2.2,3.9-0.8,7.4,1.9,13.4c1.5,3.4,3.3,7.2,4.2,11.7c1.2,5.1,0.7,9.8,0.2,13.5
				c-0.4,3.8-0.7,6.8,0.7,8.8c0.8,1.1,0.5,2.7-0.6,3.5c-1.1,0.8-2.7,0.5-3.5-0.6c-2.5-3.6-2.1-7.8-1.6-12.2
				c0.4-3.5,0.8-7.6-0.2-11.9c-0.8-4-2.4-7.4-3.9-10.7c-2.7-6-5.3-11.7-1.7-18c3-5.2,8.6-6.4,12.4-4.8c3.9,1.6,5.6,5.6,4.4,10.1
				c-0.7,2.6-0.4,7.7-0.1,9.3c0.6-0.5,1.4-1.8,2-2.7c2.2-3.2,5.4-8.1,11.3-7.4c2.8,0.3,7.2,3.4,7,10.1c-0.2,4.2-4.9,8.3-9.3,11.9
				c-0.5,0.4-1,0.8-1.3,1.1c-0.7,0.7-2.1,1.9-2.4,2.5c0.1,0.2,0.4,0.5,1.1,0.9c6.6,4.4,13.8,13.3,14.4,20.7c0.3,3-0.6,5.5-2.4,7.3
				C204.3,71.7,202.5,72.4,200.6,72.4z M185.5,26.3L185.5,26.3L185.5,26.3z"/>
		</g>
	</g>
	<g>
		<g>
			<path class="st5" d="M178.7,57.6c-2.9,1.4-8.8,3.8-12.1,2c-3.4-1.8-3.9-14.8,2.9-12.8c7.1,2.1,9-5.2,6.4-9.5
				c-2.7-4.6-8.9-6.7-13.9-4.7c-5.1,2-8.4,5.6-10.1,11c-1.6,4.9-2.8,19.6,7.9,27h16.8C188.2,70.7,187.4,53.5,178.7,57.6z"/>
		</g>
		<g>
			<path class="st3" d="M176.5,73.2h-17.6l-0.6-0.5c-11.4-8-10.8-23.5-8.8-29.8c2-6.1,5.8-10.2,11.6-12.5c6.2-2.4,13.6,0.1,17,5.7
				c2,3.4,1.9,8-0.3,10.8c-2,2.6-5.2,3.4-8.9,2.3c-0.9-0.3-1.1-0.1-1.5,0.6c-1.2,2.4-0.4,6.9,0.5,7.7c0.6,0.3,3,1.1,9.8-2.1l0,0
				c2.9-1.4,5.8-1.1,7.8,0.7c2.4,2.3,3.1,6.5,1.6,10.3C185.2,70.7,181.3,73.2,176.5,73.2z M160.4,68.2h16c3.8,0,5.3-2.3,5.8-3.7
				c0.8-2,0.5-4.1-0.3-4.8c-0.4-0.4-1.2-0.4-2.2,0.1c-6.5,3.1-11.2,3.7-14.4,2c-3.6-1.9-4.7-9.3-2.9-13.6c1.4-3.3,4.3-4.8,7.7-3.8
				c1.7,0.5,2.9,0.3,3.6-0.6c1-1.2,0.9-3.6,0-5.2c-2.1-3.5-7-5.1-10.9-3.6c-4.4,1.7-7.1,4.7-8.6,9.4c-0.6,1.8-1.4,6.3-0.6,11.4
				C154.4,61.2,156.7,65.4,160.4,68.2z"/>
		</g>
	</g>
	<g>
		<g>
			<path class="st5" d="M136.3,70.7c0,0-8.8-14.5-10.8-23.2c-1.2-5.4-2.3-12.6,4.1-17.7c3.2-2.6,6.2-5,10.7-5.9
				c6.9-1.4,9.3,7.7,4.1,11.6c-3.5,2.7-5.6-1.1-8.9,2.3c-2.2,2.3-2.6,6,0,7.8c3.2,2.3,3.8,0.7,6.3-0.9c3.2-2.4,6-2.2,7.7-0.7
				c0.8,0.7,1.3,1.8,1.4,3c0.1,1.3-0.2,2.8-1,4.3c-1.5,2.5-5.7,0.7-7.5,3.3c-1.8,2.6-0.2,5.8,2.8,7c3.4,1.7,6.2-0.2,9-2
				c6.2-4.2,12.2,11.1-0.3,11.1h-45.6C91.9,47.8,90,51.9,79.4,41c-9.9-9.6-1.4-24.4,8.8-18.9c8.6,4.7,9.2,29.6,20.5,33.4
				c2.8-0.4-5.4-9.6-4.2-14.2c0.8-3.3,3.2-3.3,4.9-1.9c3.3,2.7,3.9,10.4,6.7,9c7.7-3.8-15.1-38.1,1.2-40.3
				c16.1-2.2,3.6,27.5,8.2,39.4"/>
		</g>
		<g>
			<path class="st3" d="M136.3,73.2C136.2,73.2,136.2,73.2,136.3,73.2l-29.2,0l-0.7-1c-10.6-14.8-15-18.1-19.7-21.6
				c-2.6-2-5.3-4-9.1-7.8C71,36.5,71.4,28,75.1,23c3.5-4.7,9-5.9,14.2-3c4.7,2.6,7.1,9.3,9.7,16.5c0.9,2.6,1.9,5.3,2.9,7.7
				c-0.2-1.1-0.3-2.3,0-3.3c0.8-3.1,2.6-4.1,3.6-4.5c1.7-0.6,3.7-0.1,5.3,1.2c1.9,1.6,3,4.1,3.9,6.2c0.1,0.2,0.2,0.5,0.3,0.7
				c-0.2-2.8-1.8-8.2-2.8-11.5c-2.7-8.9-5.5-18-2.1-23.5c1.4-2.2,3.6-3.5,6.6-3.9c3.4-0.5,6.1,0.2,8.1,2.1
				c4.1,3.9,3.5,11.8,2.7,20.3c0.1-0.1,0.2-0.2,0.3-0.2l0.1-0.1c3.2-2.6,6.6-5.3,11.7-6.3c3.9-0.8,7.5,1,9.1,4.5
				c1.6,3.4,1,8.5-3,11.6c-2.5,1.9-4.7,1.6-6.2,1.4c-1.3-0.2-1.6-0.2-2.4,0.6c-0.8,0.8-1.2,1.9-1.1,2.8c0.1,0.5,0.3,1,0.8,1.3
				c0.9,0.6,1.2,0.7,1.2,0.7c0.1,0,0.6-0.4,0.9-0.7c0.4-0.3,0.8-0.6,1.2-0.9c4.6-3.5,8.7-2.5,10.8-0.5c1.2,1.1,2,2.8,2.2,4.6
				c0.2,1.9-0.2,3.9-1.3,5.8c-1.4,2.3-3.7,2.6-5.4,2.9c-1.2,0.2-1.9,0.3-2.1,0.6c-0.3,0.5-0.4,1-0.2,1.5c0.2,0.8,0.9,1.5,1.9,1.8
				l0.2,0.1c2,1,3.6,0.1,6.6-1.9c2.4-1.6,5.2-1.5,7.4,0.2c2.9,2.2,4.2,6.5,3.1,9.9c-0.6,1.7-2.6,5.5-9.3,5.5L136.3,73.2
				C136.3,73.2,136.3,73.2,136.3,73.2z M137.7,68.2H154c1.8,0,4-0.4,4.6-2.1c0.5-1.6-0.3-3.6-1.3-4.4c-0.6-0.5-1.1-0.4-1.6,0
				c-2.8,1.9-6.7,4.5-11.4,2.3c-2.3-0.9-4-2.8-4.7-4.9c-0.6-2-0.3-4,0.9-5.7c1.5-2.3,4-2.6,5.6-2.8c0.6-0.1,1.7-0.2,1.8-0.4
				c0.7-1.2,0.7-2.2,0.7-2.8c-0.1-0.6-0.3-1.1-0.7-1.4c-0.9-0.9-2.6-0.5-4.4,0.9l-0.1,0.1c-0.4,0.3-0.7,0.5-1,0.8
				c-2.1,1.6-4.3,2.8-8.1,0.1c-1.6-1.2-2.7-2.9-2.8-4.9c-0.2-2.3,0.7-4.8,2.5-6.7c2.6-2.7,5.1-2.4,6.7-2.1c1.2,0.2,1.6,0.2,2.5-0.4
				c1.9-1.4,2.2-3.9,1.4-5.5c-0.5-1-1.4-2.1-3.6-1.7c-3.9,0.8-6.5,2.9-9.6,5.3l-0.1,0.1c-4.7,3.7-4.7,8.8-3.2,15.1c0,0,0,0,0,0.1
				C129.5,53.8,135.6,64.7,137.7,68.2z M109.7,68.2h22.2c-2.8-5-7.4-13.7-8.9-20c-1.9-5-1.2-12.3-0.5-19.3
				c0.7-7.1,1.5-15.1-1.1-17.5c-0.3-0.3-1.2-1.1-3.9-0.8c-2,0.3-2.7,1.1-3.1,1.7c-2.2,3.5,0.5,12.3,2.6,19.3
				c2.7,8.9,5.1,16.6,0,19.2c-1.2,0.6-2.3,0.4-3,0.2c-2-0.7-2.8-2.8-3.9-5.2c-0.7-1.6-1.5-3.5-2.5-4.3c-0.2-0.2-0.4-0.3-0.5-0.3
				c-0.1,0.1-0.2,0.4-0.4,0.9c-0.4,1.4,1.6,5.1,2.7,7.2c1.7,3.2,2.8,5.3,1.8,7.2c-0.5,0.9-1.3,1.5-2.4,1.6l-0.6,0.1l-0.5-0.2
				c-7.3-2.4-10.4-11.3-13.5-19.8C92.2,32.2,90,26,86.9,24.3c-2.9-1.6-5.8-1-7.8,1.6c-2.4,3.3-2.5,8.9,2,13.3
				c3.6,3.6,6.1,5.5,8.6,7.4C94.6,50.3,99.2,53.7,109.7,68.2z"/>
		</g>
	</g>
</g>
<g id="Ebene_13">
</g>
<g id="ball">
	<g>
		<path class="st4" d="M241.2,5c-20.8,0-37.7,16.9-37.7,37.7c0,9.8,3.8,18.7,9.9,25.5H269c6.2-6.7,9.9-15.7,9.9-25.5
			C278.9,21.9,262,5,241.2,5z"/>
	</g>
	<path class="st8" d="M269.2,68.2c2.7-3.1,5-6.7,6.6-10.7c-5.1,3.3-14.3,7.9-25.8,8.1C232.1,65.9,231,46.1,225,32
		c-3.9-9.1-10.4-10.8-14.6-10.9c-4.4,6.2-7,13.8-7,22.1c0,9.6,3.6,18.4,9.4,25.1H269.2z"/>
</g>
<g id="becher_farbe">
	<path class="st9" d="M231.1,241.7h-63.7h-12.8c-6.9,0-12.9-5.2-13.9-12L120.3,89h51.9h7.3h29.2h7.3H268l-20.4,140.7
		c-1,6.8-7,12-13.9,12H231.1z M346.8,229.7c-1,6.8-7,12-13.9,12h-85c2.9-3,4.9-6.8,5.6-11.1L274.1,89h4.7h88.5L346.8,229.7z"/>
	<path class="st10" d="M109.6,89h4.7l20.5,141.6c0.6,4.3,2.7,8.2,5.6,11.1h-85c-6.9,0-12.9-5.2-13.9-12L21.1,89H109.6z"/>
</g>
<g id="shadow">
	<path class="st11" d="M98.1,108.3l20.1,133.4h22.2c-2.9-3-4.9-6.8-5.6-11.1L114.3,89h-4.7H21.1l2.8,19.3H98.1z"/>
	<path class="st12" d="M290.3,108.3h74.1l2.8-19.3h-88.5h-4.7l-20.5,141.6c-0.6,4.3-2.7,8.2-5.6,11.1h22.2L290.3,108.3z"/>
	<polygon class="st12" points="208.8,89 179.6,89 172.3,89 120.3,89 123.1,107.9 265.3,107.9 268,89 216.1,89 	"/>
</g>
<g id="weiß">
	<path class="st13" d="M179.6,74.2h29.2h70c2.4,0,4.4,2,4.4,4.4s-2,4.4-4.4,4.4H275h-58.9h-7.3h-29.2h-7.3h-58.9h-3.8
		c-2.4,0-4.4-2-4.4-4.4s2-4.4,4.4-4.4H179.6z"/>
	<path class="st13" d="M10.4,83C8,83,6,81,6,78.6s2-4.4,4.4-4.4h89.8c-0.6,1.3-1,2.8-1,4.4s0.4,3.1,1,4.4h-86H10.4z"/>
	<path class="st13" d="M378,83h-3.8h-86c0.6-1.3,1-2.8,1-4.4s-0.4-3.1-1-4.4H378c2.4,0,4.4,2,4.4,4.4S380.4,83,378,83z"/>
	<path class="st13" d="M120.8,133.9H43.6c-1.4,0-2.5,1.1-2.5,2.5s1.1,2.5,2.5,2.5h78L120.8,133.9z"/>
	<path class="st13" d="M114.3,89h-4.7H21.2c0,0-0.1,0.1-0.1,0.1l0.4,2.9c0.5,0.5,1.1,0.8,1.8,0.8h91.5L114.3,89z"/>
	<polygon class="st13" points="24.2,110.4 117.4,110.4 116.7,105.4 23.5,105.4 	"/>
	<path class="st13" d="M127.6,138.9h118.6c1.4,0,2.5-1.1,2.5-2.5s-1.1-2.5-2.5-2.5H126.9L127.6,138.9z"/>
	<path class="st13" d="M343.1,133.9h-75.5l-0.7,5h76.3c1.4,0,2.5-1.1,2.5-2.5S344.5,133.9,343.1,133.9z"/>
	<polygon class="st13" points="123.4,110.4 264.9,110.4 265.7,105.4 122.7,105.4 	"/>
	<polygon class="st13" points="208.8,89 179.6,89 172.3,89 120.3,89 120.9,92.8 267.5,92.8 268,89 216.1,89 	"/>
	<polygon class="st13" points="271,110.4 364.1,110.4 364.9,105.4 271.7,105.4 	"/>
	<polygon class="st13" points="274.1,89 273.5,92.8 366.7,92.8 367.2,89 278.8,89 	"/>
</g>
<g id="outline">
	<path class="st3" d="M378,68.2h-99.2h-3.3c5.3-7.1,8.4-15.9,8.4-25.5c0-23.6-19.2-42.7-42.7-42.7s-42.7,19.2-42.7,42.7
		c0,9.5,3.1,18.3,8.4,25.5h-27.3h-70H10.4C4.7,68.2,0,72.9,0,78.6S4.7,89,10.4,89h4.7l20.5,141.6c1.4,9.8,9.9,17.1,19.8,17.1h99.2
		h12.8h63.7h2.6H333c9.9,0,18.4-7.4,19.8-17.1L373.3,89h4.7c5.7,0,10.4-4.7,10.4-10.4S383.7,68.2,378,68.2z M203.4,42.7
		c0-20.8,16.9-37.7,37.7-37.7s37.7,16.9,37.7,37.7c0,9.8-3.8,18.7-9.9,25.5h-55.6C207.2,61.5,203.4,52.5,203.4,42.7z M109.6,74.2h70
		h29.2h70c2.4,0,4.4,2,4.4,4.4s-2,4.4-4.4,4.4H275h-58.9h-7.3h-29.2h-7.3h-58.9h-3.8c-2.4,0-4.4-2-4.4-4.4S107.2,74.2,109.6,74.2z
		 M14.2,83h-3.8C8,83,6,81,6,78.6s2-4.4,4.4-4.4h89.8c-0.6,1.3-1,2.8-1,4.4s0.4,3.1,1,4.4H14.2z M55.4,241.7
		c-6.9,0-12.9-5.2-13.9-12L21.1,89h88.5h4.7l20.5,141.6c0.6,4.3,2.7,8.2,5.6,11.1H55.4z M233.8,241.7h-2.6h-63.7h-12.8
		c-6.9,0-12.9-5.2-13.9-12L120.3,89h51.9h7.3h29.2h7.3H268l-20.4,140.7C246.6,236.6,240.7,241.7,233.8,241.7z M346.8,229.7
		c-1,6.8-7,12-13.9,12h-85c2.9-3,4.9-6.8,5.6-11.1L274.1,89h4.7h88.5L346.8,229.7z M378,83h-3.8h-86c0.6-1.3,1-2.8,1-4.4
		s-0.4-3.1-1-4.4H378c2.4,0,4.4,2,4.4,4.4S380.4,83,378,83z"/>
</g>
<g id="Typo">
</g>
</svg>
